<svg id="visual" viewBox="0 0 1400 650" width="1400" height="650" xmlns="http://www.w3.org/2000/svg" xmlns:xlink="http://www.w3.org/1999/xlink" version="1.1"><g stroke-width="1" stroke-linejoin="bevel"><path d="M744.8 358L740.8 278L651.2 281Z" fill="#11375d" stroke="#11375d"></path><path d="M651.2 281L611.2 383L744.8 358Z" fill="#0d2c51" stroke="#0d2c51"></path><path d="M933.3 273L781.8 162L740.8 278Z" fill="#1c5982" stroke="#1c5982"></path><path d="M740.8 278L781.8 162L651.2 281Z" fill="#20658e" stroke="#20658e"></path><path d="M611.2 383L641.2 500L744.8 358Z" fill="#194d75" stroke="#194d75"></path><path d="M641.2 500L805.8 515L744.8 358Z" fill="#20658e" stroke="#20658e"></path><path d="M744.8 358L933.3 273L740.8 278Z" fill="#20658e" stroke="#20658e"></path><path d="M781.8 162L642.2 92L651.2 281Z" fill="#20658e" stroke="#20658e"></path><path d="M651.2 281L465.7 226L611.2 383Z" fill="#1c5982" stroke="#1c5982"></path><path d="M931.3 381L933.3 273L744.8 358Z" fill="#040c2d" stroke="#040c2d"></path><path d="M805.8 515L931.3 381L744.8 358Z" fill="#11375d" stroke="#11375d"></path><path d="M642.2 92L465.7 226L651.2 281Z" fill="#040c2d" stroke="#040c2d"></path><path d="M611.2 383L494.7 551L641.2 500Z" fill="#0d2c51" stroke="#0d2c51"></path><path d="M465.7 226L433.7 357L611.2 383Z" fill="#194d75" stroke="#194d75"></path><path d="M642.2 92L457.7 167L465.7 226Z" fill="#154269" stroke="#154269"></path><path d="M297.1 277L343.1 411L433.7 357Z" fill="#092244" stroke="#092244"></path><path d="M1102.9 283L951.3 154L933.3 273Z" fill="#1c5982" stroke="#1c5982"></path><path d="M933.3 273L951.3 154L781.8 162Z" fill="#040c2d" stroke="#040c2d"></path><path d="M781.8 162L749.8 0L642.2 92Z" fill="#0d2c51" stroke="#0d2c51"></path><path d="M433.7 357L494.7 551L611.2 383Z" fill="#20658e" stroke="#20658e"></path><path d="M641.2 500L765.8 650L805.8 515Z" fill="#051839" stroke="#051839"></path><path d="M918.3 0L749.8 0L781.8 162Z" fill="#040c2d" stroke="#040c2d"></path><path d="M642.2 92L468.7 0L457.7 167Z" fill="#24719a" stroke="#24719a"></path><path d="M749.8 0L600.2 0L642.2 92Z" fill="#092244" stroke="#092244"></path><path d="M494.7 551L629.2 650L641.2 500Z" fill="#051839" stroke="#051839"></path><path d="M629.2 650L765.8 650L641.2 500Z" fill="#194d75" stroke="#194d75"></path><path d="M805.8 515L964.3 534L931.3 381Z" fill="#0d2c51" stroke="#0d2c51"></path><path d="M968.3 650L964.3 534L805.8 515Z" fill="#1c5982" stroke="#1c5982"></path><path d="M931.3 381L1102.9 283L933.3 273Z" fill="#194d75" stroke="#194d75"></path><path d="M297.1 277L433.7 357L465.7 226Z" fill="#20658e" stroke="#20658e"></path><path d="M433.7 357L343.1 411L494.7 551Z" fill="#20658e" stroke="#20658e"></path><path d="M951.3 154L918.3 0L781.8 162Z" fill="#0d2c51" stroke="#0d2c51"></path><path d="M600.2 0L468.7 0L642.2 92Z" fill="#092244" stroke="#092244"></path><path d="M457.7 167L297.1 277L465.7 226Z" fill="#154269" stroke="#154269"></path><path d="M321.1 114L297.1 277L457.7 167Z" fill="#11375d" stroke="#11375d"></path><path d="M1123.9 406L1102.9 283L931.3 381Z" fill="#194d75" stroke="#194d75"></path><path d="M951.3 154L1056.9 118L918.3 0Z" fill="#092244" stroke="#092244"></path><path d="M1102.9 283L1056.9 118L951.3 154Z" fill="#040c2d" stroke="#040c2d"></path><path d="M163.6 417L337.1 541L343.1 411Z" fill="#297ea6" stroke="#297ea6"></path><path d="M343.1 411L337.1 541L494.7 551Z" fill="#092244" stroke="#092244"></path><path d="M494.7 551L427.7 650L629.2 650Z" fill="#040c2d" stroke="#040c2d"></path><path d="M337.1 541L427.7 650L494.7 551Z" fill="#154269" stroke="#154269"></path><path d="M765.8 650L968.3 650L805.8 515Z" fill="#11375d" stroke="#11375d"></path><path d="M964.3 534L1081.9 515L931.3 381Z" fill="#040c2d" stroke="#040c2d"></path><path d="M468.7 0L321.1 114L457.7 167Z" fill="#1c5982" stroke="#1c5982"></path><path d="M1051.9 650L1081.9 515L964.3 534Z" fill="#24719a" stroke="#24719a"></path><path d="M1081.9 515L1123.9 406L931.3 381Z" fill="#20658e" stroke="#20658e"></path><path d="M968.3 650L1051.9 650L964.3 534Z" fill="#297ea6" stroke="#297ea6"></path><path d="M1264.4 418L1102.9 283L1123.9 406Z" fill="#194d75" stroke="#194d75"></path><path d="M1233.4 117L1056.9 118L1102.9 283Z" fill="#0d2c51" stroke="#0d2c51"></path><path d="M1212.4 0L1060.9 0L1056.9 118Z" fill="#154269" stroke="#154269"></path><path d="M1056.9 118L1060.9 0L918.3 0Z" fill="#051839" stroke="#051839"></path><path d="M190.6 650L314.1 650L337.1 541Z" fill="#24719a" stroke="#24719a"></path><path d="M337.1 541L314.1 650L427.7 650Z" fill="#092244" stroke="#092244"></path><path d="M159.6 230L163.6 417L297.1 277Z" fill="#194d75" stroke="#194d75"></path><path d="M468.7 0L290.1 0L321.1 114Z" fill="#1c5982" stroke="#1c5982"></path><path d="M297.1 277L163.6 417L343.1 411Z" fill="#092244" stroke="#092244"></path><path d="M159.6 230L297.1 277L183.6 116Z" fill="#092244" stroke="#092244"></path><path d="M183.6 116L297.1 277L321.1 114Z" fill="#20658e" stroke="#20658e"></path><path d="M290.1 0L183.6 116L321.1 114Z" fill="#040c2d" stroke="#040c2d"></path><path d="M1264.4 418L1245.4 229L1102.9 283Z" fill="#051839" stroke="#051839"></path><path d="M1264.4 418L1123.9 406L1268.4 540Z" fill="#051839" stroke="#051839"></path><path d="M1245.4 229L1233.4 117L1102.9 283Z" fill="#11375d" stroke="#11375d"></path><path d="M1268.4 540L1123.9 406L1081.9 515Z" fill="#11375d" stroke="#11375d"></path><path d="M0 495L139.6 498L163.6 417Z" fill="#1c5982" stroke="#1c5982"></path><path d="M163.6 417L139.6 498L337.1 541Z" fill="#11375d" stroke="#11375d"></path><path d="M139.6 498L190.6 650L337.1 541Z" fill="#297ea6" stroke="#297ea6"></path><path d="M1233.4 117L1212.4 0L1056.9 118Z" fill="#20658e" stroke="#20658e"></path><path d="M1051.9 650L1210.4 650L1081.9 515Z" fill="#297ea6" stroke="#297ea6"></path><path d="M1210.4 650L1268.4 540L1081.9 515Z" fill="#1c5982" stroke="#1c5982"></path><path d="M0 241L0 362L159.6 230Z" fill="#154269" stroke="#154269"></path><path d="M159.6 230L0 362L163.6 417Z" fill="#154269" stroke="#154269"></path><path d="M290.1 0L158.6 0L183.6 116Z" fill="#0d2c51" stroke="#0d2c51"></path><path d="M0 241L159.6 230L0 156Z" fill="#194d75" stroke="#194d75"></path><path d="M139.6 498L0 650L190.6 650Z" fill="#11375d" stroke="#11375d"></path><path d="M0 156L159.6 230L183.6 116Z" fill="#24719a" stroke="#24719a"></path><path d="M1245.4 229L1400 91L1233.4 117Z" fill="#20658e" stroke="#20658e"></path><path d="M1233.4 117L1400 0L1212.4 0Z" fill="#051839" stroke="#051839"></path><path d="M1264.4 418L1400 269L1245.4 229Z" fill="#11375d" stroke="#11375d"></path><path d="M1400 418L1400 269L1264.4 418Z" fill="#0d2c51" stroke="#0d2c51"></path><path d="M1400 517L1264.4 418L1268.4 540Z" fill="#154269" stroke="#154269"></path><path d="M1400 517L1400 418L1264.4 418Z" fill="#0d2c51" stroke="#0d2c51"></path><path d="M0 0L0 156L183.6 116Z" fill="#092244" stroke="#092244"></path><path d="M0 362L0 495L163.6 417Z" fill="#194d75" stroke="#194d75"></path><path d="M1400 650L1400 517L1268.4 540Z" fill="#092244" stroke="#092244"></path><path d="M1400 269L1400 91L1245.4 229Z" fill="#154269" stroke="#154269"></path><path d="M158.6 0L0 0L183.6 116Z" fill="#051839" stroke="#051839"></path><path d="M0 495L0 650L139.6 498Z" fill="#11375d" stroke="#11375d"></path><path d="M1400 91L1400 0L1233.4 117Z" fill="#297ea6" stroke="#297ea6"></path><path d="M1210.4 650L1400 650L1268.4 540Z" fill="#297ea6" stroke="#297ea6"></path></g></svg>